<?xml version="1.0" encoding="UTF-8"?>
<svg version="1.1" xmlns="http://www.w3.org/2000/svg" width="512" height="512">
<path d="M0 0 C0.79899719 0.00202423 1.59799438 0.00404846 2.42120361 0.00613403 C3.67722382 0.00350555 3.67722382 0.00350555 4.95861816 0.00082397 C7.74043825 -0.00359545 10.52219532 -0.00065624 13.30401611 0.00271606 C15.22833264 0.00204305 17.15264909 0.00107305 19.07696533 -0.00018311 C23.11554776 -0.0016602 27.15410812 0.00049485 31.19268799 0.00515747 C36.38170122 0.01085476 41.57066274 0.00757582 46.75967407 0.00158501 C50.73492831 -0.00202029 54.7101702 -0.00088216 58.6854248 0.0017128 C60.59928392 0.00238215 62.51314413 0.00155335 64.42700195 -0.00076675 C67.09697461 -0.00329277 69.76686232 0.00054658 72.43682861 0.00613403 C73.23582581 0.0041098 74.034823 0.00208557 74.85803223 0 C80.31475362 0.02126607 80.31475362 0.02126607 81.42901611 1.13552856 C81.52414555 3.8134083 81.5545689 6.46541726 81.5425415 9.14358521 C81.54268753 9.9825383 81.54283356 10.82149139 81.54298401 11.68586731 C81.54228461 14.47249901 81.53449097 17.25906473 81.52667236 20.04568481 C81.52480828 21.97239648 81.52338433 23.89910862 81.52238464 25.82582092 C81.5185587 30.90740254 81.50872777 35.98895576 81.49768066 41.07052612 C81.48746818 46.2516949 81.48288737 51.43286825 81.47784424 56.61404419 C81.46710557 66.78788482 81.45002824 76.96170433 81.42901611 87.13552856 C82.50022705 87.1961145 83.57143799 87.25670044 84.67510986 87.31912231 C86.07226003 87.40351394 87.46939468 87.48816262 88.86651611 87.57302856 C89.57356689 87.61234497 90.28061768 87.65166138 91.00909424 87.69216919 C96.31573486 88.02224731 96.31573486 88.02224731 97.42901611 89.13552856 C97.53166804 90.79208431 97.5642201 92.45302224 97.56945801 94.11274719 C97.57516815 95.19087677 97.5808783 96.26900635 97.58676147 97.37980652 C97.58843826 99.16964211 97.58843826 99.16964211 97.59014893 100.99563599 C97.59759628 102.86871429 97.59759628 102.86871429 97.60519409 104.77963257 C97.61733014 108.21583268 97.6247686 111.65197171 97.62920475 115.08818603 C97.63213277 117.23487789 97.63623716 119.38156439 97.64070892 121.52825356 C97.65439375 128.24410897 97.66405424 134.95995213 97.66791081 141.67582053 C97.6723871 149.42870686 97.68991074 157.18141649 97.71891141 164.9342491 C97.74054222 170.92497531 97.75061592 176.91565188 97.75195193 182.90641671 C97.75299943 186.48482662 97.7588947 190.06307065 97.77677155 193.64143944 C97.79634351 197.63721764 97.79195771 201.63262763 97.78546143 205.62844849 C97.79467621 206.81155106 97.80389099 207.99465363 97.81338501 209.21360779 C97.77593252 216.55883295 97.03045387 221.11223603 92.11651611 226.82302856 C86.36759641 231.76977342 81.36742623 232.61890627 74.05401611 232.82302856 C73.2225708 232.85718872 72.39112549 232.89134888 71.53448486 232.92654419 C69.4997826 233.00840003 67.46442404 233.07365558 65.42901611 233.13552856 C65.48702393 234.22091919 65.54503174 235.30630981 65.60479736 236.42459106 C65.65172169 237.86986032 65.69721898 239.3151764 65.74151611 240.76052856 C65.78341064 241.47338013 65.82530518 242.18623169 65.86846924 242.92068481 C65.96132143 246.96904053 65.63614158 249.3995717 63.03448486 252.59646606 C59.79140931 255.75688452 58.17359222 256.26107095 53.80401611 256.69802856 C52.98675049 256.78181763 52.16948486 256.86560669 51.32745361 256.95193481 C50.70096924 257.01252075 50.07448486 257.07310669 49.42901611 257.13552856 C49.51325989 275.46961218 49.60851654 293.80360491 49.7165432 312.13756371 C49.76646157 320.65216692 49.81290505 329.1667615 49.85089111 337.681427 C49.88404577 345.11107594 49.9240024 352.54065344 49.97180617 359.97022307 C49.99684046 363.89660177 50.01868683 367.82293451 50.03236008 371.74937057 C50.15528723 405.64292032 51.36965344 436.7393465 76.42901611 462.13552856 C95.16650178 480.25529492 117.63833671 486.74320524 143.22979736 486.40505981 C166.09893794 485.69791046 186.60958574 474.26008148 202.42901611 458.13552856 C219.75564853 438.18832007 224.89578884 413.90281675 223.42901611 388.13552856 C221.18541147 367.03583682 208.70573026 346.66800669 192.90167236 332.94021606 C172.39003604 317.20948746 148.42283055 311.69051518 122.90802002 314.40359497 C111.81896786 316.0885208 102.09263152 320.60014185 92.42901611 326.13552856 C91.57823486 326.618927 90.72745361 327.10232544 89.85089111 327.60037231 C78.48817901 334.65097605 70.03671099 344.32934914 62.42901611 355.13552856 C61.42901611 356.13552856 61.42901611 356.13552856 58.99151611 356.32302856 C56.42901611 356.13552856 56.42901611 356.13552856 54.42901611 354.13552856 C54.60693735 348.95357252 56.7633241 345.7227004 59.92901611 341.82302856 C60.38042969 341.25616333 60.83184326 340.6892981 61.29693604 340.10525513 C76.06204878 321.84606859 95.55287784 310.06741221 118.42901611 305.13552856 C119.19915039 304.96045776 119.96928467 304.78538696 120.76275635 304.60501099 C147.97674901 299.8130956 173.7247253 307.38324929 195.88604736 322.85037231 C215.7708846 337.65082035 228.32642659 359.10975725 233.05401611 383.33865356 C235.99894725 413.15608134 230.41231347 439.49489638 211.31182861 462.96365356 C195.95195107 480.68168658 174.13909562 493.79379232 150.42901611 496.13552856 C118.86558036 497.54009584 94.00825905 491.13918444 70.00714111 470.00271606 C53.97947895 454.92078552 42.13541496 432.06680406 41.30596828 409.83788395 C41.30689008 408.69393886 41.30781187 407.54999376 41.3087616 406.37138367 C41.30790717 405.72836852 41.30705275 405.08535338 41.30617243 404.42285293 C41.30453781 402.28871885 41.31000562 400.15466505 41.31549072 398.02053833 C41.31577306 396.48257957 41.31561396 394.94462067 41.31504822 393.40666199 C41.31476205 389.24604028 41.32062963 385.08544757 41.32762218 380.92483258 C41.33388574 376.57131425 41.33446189 372.21779521 41.33564758 367.86427307 C41.33875205 359.62674581 41.34695351 351.38923186 41.35699707 343.15171045 C41.36818568 333.77083363 41.37367558 324.38995616 41.37869251 315.00907433 C41.38913687 295.71788487 41.40671917 276.42670779 41.42901611 257.13552856 C38.78901611 257.13552856 36.14901611 257.13552856 33.42901611 257.13552856 C33.51331692 275.43507044 33.60859324 293.73452183 33.7165432 312.03393936 C33.7664294 320.53279109 33.8128726 329.03163431 33.85089111 337.5305481 C33.88407991 344.9477641 33.92405393 352.36490904 33.97180617 359.78204608 C33.99680744 363.70066366 34.01866254 367.61923572 34.03236008 371.53791046 C33.51102367 401.36528557 33.51102367 401.36528557 39.05401611 430.44802856 C39.31271484 431.26722778 39.57141357 432.086427 39.83795166 432.93045044 C44.11662167 445.85840716 50.94574883 456.5602711 59.42901611 467.13552856 C60.21276611 468.18740356 60.99651611 469.23927856 61.80401611 470.32302856 C78.08347445 487.76530535 103.06438975 501.1841291 127.17022705 502.25759888 C157.20915195 503.04237406 180.61704492 496.85496905 204.42901611 478.13552856 C205.48089111 477.35177856 206.53276611 476.56802856 207.61651611 475.76052856 C225.0587929 459.48107023 238.47761665 434.50015493 239.55108643 410.39431763 C240.33586161 380.35539273 234.1484566 356.94749976 215.42901611 333.13552856 C214.64526611 332.08365356 213.86151611 331.03177856 213.05401611 329.94802856 C196.77455778 312.50575178 171.79364248 299.08692803 147.68780518 298.01345825 C117.21412896 297.21732507 90.51322959 303.49416413 67.65948486 324.78396606 C66.11651611 326.19802856 66.11651611 326.19802856 63.42901611 328.13552856 C59.2429696 327.94948205 59.2429696 327.94948205 57.42901611 326.13552856 C57.03105072 322.61771105 56.92166915 320.80880783 59.08917236 317.93240356 C81.45180954 298.87870945 106.90088625 287.68656631 136.61651611 287.82302856 C137.899375 287.82866821 139.18223389 287.83430786 140.50396729 287.84011841 C169.49528619 288.21102514 195.83354293 299.86709052 216.99542236 319.60427856 C240.85355826 344.41980355 249.95949359 373.31102764 249.63995361 407.14724731 C249.03628593 435.12090949 235.53300909 462.8071526 215.42901611 482.13552856 C188.29520093 506.04035122 159.03624583 513.54830623 123.42901611 512.13552856 C98.00244974 510.16462452 70.85674512 495.64718944 54.06622314 476.58865356 C37.67433706 457.2148814 25.28800275 433.26122242 25.3087616 407.3334198 C25.30790717 406.68632111 25.30705275 406.03922241 25.30617243 405.37251467 C25.30453765 403.22456124 25.31000589 401.07668757 25.31549072 398.92874146 C25.31577305 397.3809306 25.31561396 395.83311961 25.31504822 394.28530884 C25.31476203 390.09782856 25.32062984 385.91037709 25.32762218 381.72290349 C25.33388551 377.34135793 25.33446187 372.95981167 25.33564758 368.57826233 C25.33875212 360.28761115 25.34695367 351.99697321 25.35699707 343.70632786 C25.36818547 334.26499268 25.37367553 324.82365687 25.37869251 315.38231671 C25.38913702 295.96671317 25.40671946 276.55112193 25.42901611 257.13552856 C24.81993408 257.09161987 24.21085205 257.04771118 23.58331299 257.00247192 C22.77958252 256.93165405 21.97585205 256.86083618 21.14776611 256.78787231 C20.35305908 256.72333862 19.55835205 256.65880493 18.73956299 256.59231567 C14.91788237 255.83678266 13.11674823 253.89045398 10.42901611 251.13552856 C8.83489328 247.94728289 9.32726876 244.50656194 9.36651611 241.01052856 C9.37102783 240.256427 9.37553955 239.50232544 9.38018799 238.72537231 C9.39198112 236.8620573 9.40991669 234.99878301 9.42901611 233.13552856 C8.19925049 233.09814575 6.96948486 233.06076294 5.70245361 233.02224731 C4.0696121 232.95655829 2.43680093 232.89011197 0.80401611 232.82302856 C-0.40834717 232.78919067 -0.40834717 232.78919067 -1.64520264 232.75466919 C-8.04205294 232.46863117 -12.30496328 231.08536025 -17.25848389 226.82302856 C-23.06795409 220.07148211 -22.99410422 214.18897503 -22.9274292 205.62844849 C-22.92947357 204.37096802 -22.93151794 203.11348755 -22.93362427 201.81790161 C-22.93874083 198.3822323 -22.92526097 194.9468645 -22.90809727 191.51124358 C-22.89302904 187.91492828 -22.89423464 184.31861636 -22.89343262 180.72227478 C-22.88974554 174.68915678 -22.87480154 168.65615294 -22.85223389 162.62307739 C-22.82329383 154.87047751 -22.81300373 147.11796919 -22.80855179 139.36532116 C-22.80457833 132.7040546 -22.79208095 126.04280805 -22.77820492 119.3815558 C-22.7741014 117.23708469 -22.77117824 115.0926143 -22.76840973 112.9481411 C-22.76262457 108.96394365 -22.74795776 104.97980675 -22.7321167 100.99563599 C-22.73099884 99.80241226 -22.72988098 98.60918854 -22.72872925 97.37980652 C-22.7230191 96.30167694 -22.71730896 95.22354736 -22.71142578 94.11274719 C-22.70845112 93.17017154 -22.70547646 92.22759588 -22.70241165 91.25645733 C-22.57098389 89.13552856 -22.57098389 89.13552856 -21.57098389 88.13552856 C-19.04502129 87.89899334 -16.53991182 87.71379165 -14.00848389 87.57302856 C-12.94210693 87.50825317 -12.94210693 87.50825317 -11.85418701 87.44216919 C-10.09336477 87.3358108 -8.33220069 87.2351401 -6.57098389 87.13552856 C-6.5732045 86.06033463 -6.57542511 84.98514069 -6.57771301 83.87736511 C-6.59794379 73.76768656 -6.61295571 63.65801208 -6.62279606 53.54831791 C-6.62802505 48.35024742 -6.63512299 43.1521932 -6.64642334 37.95413208 C-6.65725165 32.94210588 -6.6632606 27.93009538 -6.66586113 22.9180584 C-6.66771548 21.00140574 -6.67133628 19.08475399 -6.67671394 17.16810799 C-6.68392363 14.49324784 -6.68497486 11.81845343 -6.68450928 9.14358521 C-6.68810455 8.34301697 -6.69169983 7.54244873 -6.69540405 6.71762085 C-6.6831347 0.24681556 -6.47157516 0.02522118 0 0 Z M1.42901611 8.13552856 C1.09901611 34.53552856 0.76901611 60.93552856 0.42901611 88.13552856 C24.84901611 88.13552856 49.26901611 88.13552856 74.42901611 88.13552856 C74.09901611 61.73552856 73.76901611 35.33552856 73.42901611 8.13552856 C49.66901611 8.13552856 25.90901611 8.13552856 1.42901611 8.13552856 Z M-14.57098389 96.13552856 C-14.66112003 117.5842871 -14.66112003 117.5842871 -14.72174549 139.03307247 C-14.73836387 146.70440687 -14.75945573 154.37564332 -14.79730225 162.04690552 C-14.83045855 168.77070964 -14.84783928 175.49438583 -14.85561562 182.21827507 C-14.86115717 184.78309739 -14.87197841 187.34791394 -14.88817406 189.91269112 C-14.90996174 193.50605925 -14.91295016 197.09898973 -14.91156006 200.69241333 C-14.92234589 201.75193207 -14.93313171 202.81145081 -14.94424438 203.90307617 C-14.91971098 209.76673856 -14.43940796 213.97704518 -11.57098389 219.13552856 C-6.36633893 224.20672109 -1.87756146 224.28584391 5.11578369 224.29666138 C5.88540939 224.30162628 6.6550351 224.30659119 7.44798279 224.31170654 C9.9898468 224.32629114 12.53164841 224.33312407 15.07354736 224.33865356 C16.8446808 224.34440818 18.61581422 224.35016587 20.38694763 224.35592651 C24.09994801 224.36642605 27.81292681 224.37227553 31.52593994 224.37576294 C36.27382931 224.38124467 41.02143147 224.40527023 45.76923084 224.43373489 C49.42818525 224.45239767 53.08707098 224.45756882 56.74606895 224.45909882 C58.49589291 224.46211778 60.24571588 224.47012071 61.99549294 224.483284 C64.4485699 224.5004205 66.9009517 224.49844592 69.35406494 224.49197388 C70.4289769 224.50579605 70.4289769 224.50579605 71.52560425 224.51989746 C76.61296771 224.47804609 79.9871055 223.43870155 84.42901611 221.13552856 C88.71886515 216.73278877 89.55574997 213.23761309 89.54927063 207.2507019 C89.55064529 206.26916138 89.55201996 205.28762085 89.55343628 204.27633667 C89.549841 203.2060321 89.54624573 202.13572754 89.5425415 201.0329895 C89.54268753 199.90099121 89.54283356 198.76899292 89.54298401 197.60269165 C89.54228695 193.85840951 89.53450415 190.11417702 89.52667236 186.36990356 C89.52480745 183.7748721 89.52338389 181.17984029 89.52238464 178.58480835 C89.51895569 172.45088661 89.51107295 166.31698538 89.50103515 160.18307137 C89.48875717 152.51358136 89.48328645 144.84408845 89.47784424 137.17459106 C89.46810717 123.49488967 89.44807452 109.8152272 89.42901611 96.13552856 C55.10901611 96.13552856 20.78901611 96.13552856 -14.57098389 96.13552856 Z M16.42901611 232.13552856 C16.08819661 243.65596539 16.08819661 243.65596539 21.42901611 248.13552856 C24.84167541 248.75159567 24.84167541 248.75159567 28.67901611 248.66677856 C29.72170654 248.67251892 29.72170654 248.67251892 30.78546143 248.67837524 C32.25129652 248.68109036 33.71718039 248.67375692 35.18292236 248.65701294 C37.42230586 248.63559275 39.65848198 248.65682299 41.89776611 248.68240356 C43.3248565 248.67976021 44.7519449 248.67463506 46.17901611 248.66677856 C47.47323486 248.66226685 48.76745361 248.65775513 50.10089111 248.65310669 C53.9636888 248.38758578 53.9636888 248.38758578 57.42901611 244.13552856 C57.75901611 240.17552856 58.08901611 236.21552856 58.42901611 232.13552856 C44.56901611 232.13552856 30.70901611 232.13552856 16.42901611 232.13552856 Z " fill="#000000" transform="translate(130.57098388671875,-0.135528564453125)"/>
<path d="M0 0 C1.61672607 -0.00472824 1.61672607 -0.00472824 3.26611328 -0.009552 C4.43899902 -0.00752777 5.61188477 -0.00550354 6.8203125 -0.00341797 C8.0151123 -0.00437469 9.20991211 -0.00533142 10.44091797 -0.00631714 C12.9729823 -0.00699918 15.50504838 -0.00514325 18.03710938 -0.00097656 C21.9284251 0.00437132 25.81962539 -0.00092079 29.7109375 -0.00732422 C32.16406276 -0.00666344 34.61718794 -0.00538229 37.0703125 -0.00341797 C38.24319824 -0.0054422 39.41608398 -0.00746643 40.62451172 -0.009552 C41.7023291 -0.00639984 42.78014648 -0.00324768 43.890625 0 C44.84469238 0.00079559 45.79875977 0.00159119 46.78173828 0.00241089 C48.9453125 0.12939453 48.9453125 0.12939453 49.9453125 1.12939453 C50.03827065 2.5722924 50.06277763 4.01969238 50.05883789 5.46557617 C50.05872459 6.84689476 50.05872459 6.84689476 50.05860901 8.25611877 C50.05344772 9.25715134 50.04828644 10.2581839 50.04296875 11.28955078 C50.0415538 12.3091539 50.04013885 13.32875702 50.03868103 14.3792572 C50.03306347 17.6501656 50.020508 20.92100666 50.0078125 24.19189453 C50.00279976 26.40348209 49.99823646 28.61507071 49.99414062 30.82666016 C49.98308834 36.2609281 49.96633313 41.69515651 49.9453125 47.12939453 C51.0796875 47.27376953 52.2140625 47.41814453 53.3828125 47.56689453 C56.9453125 48.12939453 56.9453125 48.12939453 57.9453125 49.12939453 C58.04301451 50.55653073 58.07162945 51.98846883 58.07229614 53.41894531 C58.07652588 54.80717499 58.07652588 54.80717499 58.08084106 56.22344971 C58.07780472 57.75857208 58.07780472 57.75857208 58.07470703 59.32470703 C58.07733551 60.93185577 58.07733551 60.93185577 58.08001709 62.57147217 C58.08443803 66.1324625 58.08149676 69.69340364 58.078125 73.25439453 C58.07879797 75.71679697 58.07976794 78.17919935 58.08102417 80.64160156 C58.08250147 85.81006501 58.08034555 90.97851121 58.07568359 96.14697266 C58.0699863 102.7888018 58.07326513 109.43059055 58.07925606 116.07241821 C58.0828608 121.15942695 58.08172349 126.24642604 58.07912827 131.33343506 C58.07845875 133.78318283 58.07928825 136.23293146 58.08160782 138.68267822 C58.08413292 142.09983663 58.08029576 145.5169286 58.07470703 148.93408203 C58.07673126 149.95749695 58.07875549 150.98091187 58.08084106 152.03533936 C58.07802124 152.96082581 58.07520142 153.88631226 58.07229614 154.83984375 C58.0717306 156.05327957 58.0717306 156.05327957 58.07115364 157.29122925 C57.9453125 159.12939453 57.9453125 159.12939453 56.9453125 160.12939453 C54.41934991 160.36592976 51.91424043 160.55113145 49.3828125 160.69189453 C48.67189453 160.73507813 47.96097656 160.77826172 47.22851562 160.82275391 C45.46769338 160.9291123 43.7065293 161.02978299 41.9453125 161.12939453 C42.1 162.92376953 42.1 162.92376953 42.2578125 164.75439453 C42.27601762 168.1708894 41.75662526 169.93177856 39.5703125 172.56689453 C34.49227548 177.52402591 28.99062036 176.4238467 22.1953125 176.50439453 C21.01453125 176.54177734 19.83375 176.57916016 18.6171875 176.61767578 C8.85202043 176.71664707 8.85202043 176.71664707 5.1796875 173.73095703 C1.40795304 169.33939208 1.85455699 166.75623626 1.9453125 161.12939453 C0.87410156 161.06880859 -0.19710938 161.00822266 -1.30078125 160.94580078 C-2.69793141 160.86140916 -4.09506607 160.77676048 -5.4921875 160.69189453 C-6.19923828 160.65257812 -6.90628906 160.61326172 -7.63476562 160.57275391 C-12.94140625 160.24267578 -12.94140625 160.24267578 -14.0546875 159.12939453 C-14.15238951 157.70225833 -14.18100445 156.27032023 -14.18167114 154.83984375 C-14.18449097 153.9143573 -14.18731079 152.98887085 -14.19021606 152.03533936 C-14.18717972 150.50021698 -14.18717972 150.50021698 -14.18408203 148.93408203 C-14.18583435 147.86264954 -14.18758667 146.79121704 -14.18939209 145.68731689 C-14.19381303 142.12632656 -14.19087176 138.56538542 -14.1875 135.00439453 C-14.18817297 132.54199209 -14.18914294 130.07958971 -14.19039917 127.6171875 C-14.19187647 122.44872405 -14.18972055 117.28027785 -14.18505859 112.11181641 C-14.1793613 105.46998726 -14.18264013 98.82819851 -14.18863106 92.18637085 C-14.1922358 87.09936211 -14.19109849 82.01236303 -14.18850327 76.925354 C-14.18783375 74.47560623 -14.18866325 72.0258576 -14.19098282 69.57611084 C-14.19350792 66.15895243 -14.18967076 62.74186046 -14.18408203 59.32470703 C-14.18610626 58.30129211 -14.18813049 57.2778772 -14.19021606 56.22344971 C-14.18739624 55.29796326 -14.18457642 54.37247681 -14.18167114 53.41894531 C-14.18129412 52.6099881 -14.18091709 51.80103088 -14.18052864 50.96755981 C-14.0546875 49.12939453 -14.0546875 49.12939453 -13.0546875 48.12939453 C-10.72650786 47.76178722 -8.392849 47.42697872 -6.0546875 47.12939453 C-6.05690811 46.55532364 -6.05912872 45.98125275 -6.06141663 45.38978577 C-6.08347007 39.43686544 -6.09859434 33.48395663 -6.10961914 27.53100586 C-6.11466067 25.30671721 -6.12149373 23.0824319 -6.13012695 20.8581543 C-6.14220048 17.66861144 -6.14791746 14.47911224 -6.15234375 11.28955078 C-6.15750504 10.28851822 -6.16266632 9.28748566 -6.16798401 8.25611877 C-6.16805954 7.33523972 -6.16813507 6.41436066 -6.16821289 5.46557617 C-6.1704335 4.65061172 -6.17265411 3.83564728 -6.17494202 2.99598694 C-5.92497812 -0.88395634 -3.2814525 0.00273639 0 0 Z M1.9453125 8.12939453 C1.6153125 21.32939453 1.2853125 34.52939453 0.9453125 48.12939453 C14.8053125 48.12939453 28.6653125 48.12939453 42.9453125 48.12939453 C42.6153125 34.92939453 42.2853125 21.72939453 41.9453125 8.12939453 C28.7453125 8.12939453 15.5453125 8.12939453 1.9453125 8.12939453 Z M-6.0546875 56.12939453 C-6.0546875 87.80939453 -6.0546875 119.48939453 -6.0546875 152.12939453 C12.4253125 152.12939453 30.9053125 152.12939453 49.9453125 152.12939453 C49.9453125 120.44939453 49.9453125 88.76939453 49.9453125 56.12939453 C31.4653125 56.12939453 12.9853125 56.12939453 -6.0546875 56.12939453 Z M8.9453125 160.12939453 C10.95682513 166.90429345 10.95682513 166.90429345 13.9453125 168.12939453 C16.58648939 168.30644045 19.17727846 168.40681001 21.8203125 168.44189453 C22.90119141 168.48540039 22.90119141 168.48540039 24.00390625 168.52978516 C27.48799944 168.57149161 29.53282377 168.42788877 32.390625 166.35986328 C34.22835732 164.00525283 34.22835732 164.00525283 34.9453125 160.12939453 C26.3653125 160.12939453 17.7853125 160.12939453 8.9453125 160.12939453 Z " fill="#000000" transform="translate(346.0546875,39.87060546875)"/>
<path d="M0 0 C2.5546875 1.7578125 2.5546875 1.7578125 4.875 4.125 C6.04675781 5.27355469 6.04675781 5.27355469 7.2421875 6.4453125 C9.37898557 9.55079236 9.42925065 11.3042566 9 15 C8.67 15.33 8.34 15.66 8 16 C6.02 16 4.04 16 2 16 C2 29.2 2 42.4 2 56 C12.42816916 50.42162309 12.42816916 50.42162309 13.16015625 43.1015625 C13.17729142 40.94253093 13.14350566 38.78257944 13.0625 36.625 C13.05108214 34.45053171 13.04184287 32.27605049 13.03515625 30.1015625 C13.0081665 29.14588379 12.98117676 28.19020508 12.95336914 27.20556641 C13 25 13 25 14 24 C17 23.875 17 23.875 20 24 C22.7075286 26.7075286 21.58407478 33.79575566 21.6796875 37.45336914 C21.72617474 38.84782481 21.79418902 40.24174604 21.88476562 41.6340332 C22.17964542 46.24813177 22.1976667 50.48576692 21 55 C17.27028075 59.16335529 12.94114009 61.52942996 8 64 C6.02 64 4.04 64 2 64 C1.67 73.9 1.34 83.8 1 94 C-5 95 -5 95 -7 94 C-7.4140625 90.83984375 -7.4140625 90.83984375 -7.625 86.9375 C-7.69976562 85.64714844 -7.77453125 84.35679687 -7.8515625 83.02734375 C-7.90054688 82.02832031 -7.94953125 81.02929688 -8 80 C-8.85980469 80.08121094 -9.71960938 80.16242188 -10.60546875 80.24609375 C-14.86298795 79.93743586 -16.85246289 78.5142573 -20.3125 76.0625 C-21.88451172 74.96615234 -21.88451172 74.96615234 -23.48828125 73.84765625 C-26 72 -26 72 -27 71 C-27.10012401 68.79349344 -27.1308118 66.58377614 -27.1328125 64.375 C-27.13376923 63.71290527 -27.13472595 63.05081055 -27.13571167 62.36865234 C-27.13639326 60.96647039 -27.13454042 59.5642853 -27.13037109 58.16210938 C-27.12502246 56.00904287 -27.1303167 53.85618498 -27.13671875 51.703125 C-27.13605796 50.34374954 -27.13477679 48.9843742 -27.1328125 47.625 C-27.13168457 46.37976563 -27.13055664 45.13453125 -27.12939453 43.8515625 C-27 41 -27 41 -26 40 C-23 39.875 -23 39.875 -20 40 C-19 41 -19 41 -18.95336914 43.20556641 C-18.98035889 44.16124512 -19.00734863 45.11692383 -19.03515625 46.1015625 C-19.03837891 47.14957031 -19.04160156 48.19757813 -19.04492188 49.27734375 C-19.05652001 51.48614407 -19.10267538 53.69506812 -19.18554688 55.90234375 C-19.25511154 59.58024358 -19.25511154 59.58024358 -18 65 C-13.05 68.465 -13.05 68.465 -8 72 C-8 53.52 -8 35.04 -8 16 C-9.98 16 -11.96 16 -14 16 C-15 15 -15 15 -15.3203125 12.2421875 C-14.9184714 8.17477145 -13.76198471 6.95481669 -10.875 4.125 C-10.10929687 3.34382813 -9.34359375 2.56265625 -8.5546875 1.7578125 C-5.353307 -0.44497225 -3.81401513 -0.65553385 0 0 Z " fill="#000000" transform="translate(171,112)"/>
<path d="M0 0 C3 0.125 3 0.125 4 1.125 C4.09823093 2.75491555 4.12631949 4.38909986 4.12698364 6.02197266 C4.12980347 7.08208557 4.13262329 8.14219849 4.13552856 9.23443604 C4.13350433 10.40746277 4.1314801 11.5804895 4.12939453 12.7890625 C4.13114685 14.01655212 4.13289917 15.24404175 4.13470459 16.50872803 C4.13836283 19.88468279 4.13748964 23.26057661 4.1343255 26.63652802 C4.13180157 30.16214584 4.13413954 33.68776098 4.13571167 37.21337891 C4.13753327 43.13509593 4.13512732 49.05680049 4.13037109 54.97851562 C4.12492849 61.8341681 4.12669115 68.68979083 4.1321975 75.54544258 C4.13672891 81.42144081 4.13737904 87.29743007 4.13475883 93.17342949 C4.13319621 96.68734093 4.13300188 100.20123837 4.13629532 103.71514893 C4.13970832 107.63042363 4.13498383 111.54566477 4.12939453 115.4609375 C4.13141876 116.63396423 4.13344299 117.80699097 4.13552856 119.01556396 C4.13270874 120.07567688 4.12988892 121.13578979 4.12698364 122.22802734 C4.12660662 123.15497406 4.12622959 124.08192078 4.12584114 125.03695679 C4 127.125 4 127.125 3 128.125 C0 128.25 0 128.25 -3 128.125 C-4.65821263 126.46678737 -4.12605572 124.50939005 -4.12698364 122.22802734 C-4.12980347 121.16791443 -4.13262329 120.10780151 -4.13552856 119.01556396 C-4.13350433 117.84253723 -4.1314801 116.6695105 -4.12939453 115.4609375 C-4.13114685 114.23344788 -4.13289917 113.00595825 -4.13470459 111.74127197 C-4.13836283 108.36531721 -4.13748964 104.98942339 -4.1343255 101.61347198 C-4.13180157 98.08785416 -4.13413954 94.56223902 -4.13571167 91.03662109 C-4.13753327 85.11490407 -4.13512732 79.19319951 -4.13037109 73.27148438 C-4.12492849 66.4158319 -4.12669115 59.56020917 -4.1321975 52.70455742 C-4.13672891 46.82855919 -4.13737904 40.95256993 -4.13475883 35.07657051 C-4.13319621 31.56265907 -4.13300188 28.04876163 -4.13629532 24.53485107 C-4.13970832 20.61957637 -4.13498383 16.70433523 -4.12939453 12.7890625 C-4.13141876 11.61603577 -4.13344299 10.44300903 -4.13552856 9.23443604 C-4.13270874 8.17432312 -4.12988892 7.11421021 -4.12698364 6.02197266 C-4.12660662 5.09502594 -4.12622959 4.16807922 -4.12584114 3.21304321 C-3.9244311 -0.12889143 -3.41399974 0.14224999 0 0 Z " fill="#000000" transform="translate(376,223.875)"/>
<path d="M0 0 C3 0.125 3 0.125 4 1.125 C4.10069779 4.28576344 4.13614023 7.42472027 4.12939453 10.5859375 C4.13114685 11.57934143 4.13289917 12.57274536 4.13470459 13.59625244 C4.13912511 16.89751912 4.13618441 20.19873273 4.1328125 23.5 C4.13348548 25.78304047 4.13445546 28.06608087 4.13571167 30.34912109 C4.13718891 35.14095744 4.13503323 39.93277519 4.13037109 44.72460938 C4.1246738 50.88216635 4.12795266 57.03967974 4.13394356 63.19723511 C4.13754845 67.91365897 4.13641091 72.63007241 4.13381577 77.34649658 C4.1331463 79.6176148 4.1339756 81.88873394 4.13629532 84.15985107 C4.13882067 87.32794722 4.1349829 90.49597172 4.12939453 93.6640625 C4.13141876 94.61267151 4.13344299 95.56128052 4.13552856 96.53863525 C4.11426224 103.01073776 4.11426224 103.01073776 3 104.125 C0 104.25 0 104.25 -3 104.125 C-4.96217033 102.16282967 -4.12694487 99.15095856 -4.13552856 96.53863525 C-4.13350433 95.59002625 -4.1314801 94.64141724 -4.12939453 93.6640625 C-4.13114685 92.67065857 -4.13289917 91.67725464 -4.13470459 90.65374756 C-4.13912511 87.35248088 -4.13618441 84.05126727 -4.1328125 80.75 C-4.13348548 78.46695953 -4.13445546 76.18391913 -4.13571167 73.90087891 C-4.13718891 69.10904256 -4.13503323 64.31722481 -4.13037109 59.52539062 C-4.1246738 53.36783365 -4.12795266 47.21032026 -4.13394356 41.05276489 C-4.13754845 36.33634103 -4.13641091 31.61992759 -4.13381577 26.90350342 C-4.1331463 24.6323852 -4.1339756 22.36126606 -4.13629532 20.09014893 C-4.13882067 16.92205278 -4.1349829 13.75402828 -4.12939453 10.5859375 C-4.13141876 9.63732849 -4.13344299 8.68871948 -4.13552856 7.71136475 C-4.11075302 0.17128138 -4.11075302 0.17128138 0 0 Z " fill="#000000" transform="translate(360,223.875)"/>
<path d="M0 0 C0.98484375 -0.00128906 1.9696875 -0.00257812 2.984375 -0.00390625 C4.02078125 -0.00003906 5.0571875 0.00382812 6.125 0.0078125 C7.67960938 0.00201172 7.67960938 0.00201172 9.265625 -0.00390625 C10.25046875 -0.00261719 11.2353125 -0.00132813 12.25 0 C13.16007812 0.00112793 14.07015625 0.00225586 15.0078125 0.00341797 C17.125 0.1328125 17.125 0.1328125 18.125 1.1328125 C18.2241657 2.75538794 18.25579777 4.38221081 18.2578125 6.0078125 C18.25974609 7.48507813 18.25974609 7.48507813 18.26171875 8.9921875 C18.25785156 10.02859375 18.25398438 11.065 18.25 12.1328125 C18.25580078 13.68742187 18.25580078 13.68742187 18.26171875 15.2734375 C18.26042969 16.25828125 18.25914062 17.243125 18.2578125 18.2578125 C18.25668457 19.16789062 18.25555664 20.07796875 18.25439453 21.015625 C18.125 23.1328125 18.125 23.1328125 17.125 24.1328125 C15.50242456 24.2319782 13.87560169 24.26361027 12.25 24.265625 C11.26515625 24.26691406 10.2803125 24.26820312 9.265625 24.26953125 C8.22921875 24.26566406 7.1928125 24.26179688 6.125 24.2578125 C4.57039062 24.26361328 4.57039062 24.26361328 2.984375 24.26953125 C1.99953125 24.26824219 1.0146875 24.26695313 0 24.265625 C-0.91007813 24.26449707 -1.82015625 24.26336914 -2.7578125 24.26220703 C-4.875 24.1328125 -4.875 24.1328125 -5.875 23.1328125 C-5.9741657 21.51023706 -6.00579777 19.88341419 -6.0078125 18.2578125 C-6.00910156 17.27296875 -6.01039063 16.288125 -6.01171875 15.2734375 C-6.00785156 14.23703125 -6.00398437 13.200625 -6 12.1328125 C-6.00580078 10.57820313 -6.00580078 10.57820313 -6.01171875 8.9921875 C-6.01042969 8.00734375 -6.00914062 7.0225 -6.0078125 6.0078125 C-6.00668457 5.09773438 -6.00555664 4.18765625 -6.00439453 3.25 C-5.75735363 -0.79214854 -3.51772145 0.00435978 0 0 Z M2.125 8.1328125 C2.125 10.7728125 2.125 13.4128125 2.125 16.1328125 C4.765 16.1328125 7.405 16.1328125 10.125 16.1328125 C10.125 13.4928125 10.125 10.8528125 10.125 8.1328125 C7.485 8.1328125 4.845 8.1328125 2.125 8.1328125 Z " fill="#000000" transform="translate(177.875,31.8671875)"/>
<path d="M0 0 C0.98484375 -0.00128906 1.9696875 -0.00257812 2.984375 -0.00390625 C4.02078125 -0.00003906 5.0571875 0.00382812 6.125 0.0078125 C7.67960938 0.00201172 7.67960938 0.00201172 9.265625 -0.00390625 C10.25046875 -0.00261719 11.2353125 -0.00132813 12.25 0 C13.16007812 0.00112793 14.07015625 0.00225586 15.0078125 0.00341797 C17.125 0.1328125 17.125 0.1328125 18.125 1.1328125 C18.2241657 2.75538794 18.25579777 4.38221081 18.2578125 6.0078125 C18.25974609 7.48507813 18.25974609 7.48507813 18.26171875 8.9921875 C18.25785156 10.02859375 18.25398438 11.065 18.25 12.1328125 C18.25580078 13.68742187 18.25580078 13.68742187 18.26171875 15.2734375 C18.26042969 16.25828125 18.25914062 17.243125 18.2578125 18.2578125 C18.25668457 19.16789062 18.25555664 20.07796875 18.25439453 21.015625 C18.125 23.1328125 18.125 23.1328125 17.125 24.1328125 C15.50242456 24.2319782 13.87560169 24.26361027 12.25 24.265625 C11.26515625 24.26691406 10.2803125 24.26820312 9.265625 24.26953125 C8.22921875 24.26566406 7.1928125 24.26179688 6.125 24.2578125 C4.57039062 24.26361328 4.57039062 24.26361328 2.984375 24.26953125 C1.99953125 24.26824219 1.0146875 24.26695313 0 24.265625 C-0.91007813 24.26449707 -1.82015625 24.26336914 -2.7578125 24.26220703 C-4.875 24.1328125 -4.875 24.1328125 -5.875 23.1328125 C-5.9741657 21.51023706 -6.00579777 19.88341419 -6.0078125 18.2578125 C-6.00910156 17.27296875 -6.01039063 16.288125 -6.01171875 15.2734375 C-6.00785156 14.23703125 -6.00398437 13.200625 -6 12.1328125 C-6.00580078 10.57820313 -6.00580078 10.57820313 -6.01171875 8.9921875 C-6.01042969 8.00734375 -6.00914062 7.0225 -6.0078125 6.0078125 C-6.00668457 5.09773438 -6.00555664 4.18765625 -6.00439453 3.25 C-5.75735363 -0.79214854 -3.51772145 0.00435978 0 0 Z M2.125 8.1328125 C2.125 10.7728125 2.125 13.4128125 2.125 16.1328125 C4.765 16.1328125 7.405 16.1328125 10.125 16.1328125 C10.125 13.4928125 10.125 10.8528125 10.125 8.1328125 C7.485 8.1328125 4.845 8.1328125 2.125 8.1328125 Z " fill="#000000" transform="translate(145.875,31.8671875)"/>
<path d="M0 0 C0.82290527 0.00202423 1.64581055 0.00404846 2.49365234 0.00613403 C3.33331543 0.00517731 4.17297852 0.00422058 5.03808594 0.00323486 C6.81689529 0.00255306 8.59570712 0.00440737 10.37451172 0.00857544 C13.10699011 0.01392371 15.83930411 0.00863048 18.57177734 0.00222778 C20.29573604 0.00288856 22.01969464 0.00416973 23.74365234 0.00613403 C24.56655762 0.0041098 25.38946289 0.00208557 26.23730469 0 C32.0037018 0.02399599 32.0037018 0.02399599 33.11865234 1.13894653 C33.24365234 4.13894653 33.24365234 4.13894653 33.11865234 7.13894653 C31.27588726 8.98171162 28.68901476 8.26769065 26.23730469 8.27789307 C25.41439941 8.27586884 24.59149414 8.2738446 23.74365234 8.27175903 C22.90398926 8.27271576 22.06432617 8.27367249 21.19921875 8.2746582 C19.4204094 8.27534001 17.64159757 8.2734857 15.86279297 8.26931763 C13.13031458 8.26396936 10.39800058 8.26926259 7.66552734 8.27566528 C5.94156865 8.2750045 4.21761005 8.27372334 2.49365234 8.27175903 C1.67074707 8.27378326 0.8478418 8.2758075 0 8.27789307 C-5.76639711 8.25389708 -5.76639711 8.25389708 -6.88134766 7.13894653 C-7.00634766 4.13894653 -7.00634766 4.13894653 -6.88134766 1.13894653 C-5.03858257 -0.70381855 -2.45171007 0.01020242 0 0 Z " fill="#000000" transform="translate(354.88134765625,143.86105346679688)"/>
<path d="M0 0 C0.82290527 0.00202423 1.64581055 0.00404846 2.49365234 0.00613403 C3.33331543 0.00517731 4.17297852 0.00422058 5.03808594 0.00323486 C6.81689529 0.00255306 8.59570712 0.00440737 10.37451172 0.00857544 C13.10699011 0.01392371 15.83930411 0.00863048 18.57177734 0.00222778 C20.29573604 0.00288856 22.01969464 0.00416973 23.74365234 0.00613403 C24.56655762 0.0041098 25.38946289 0.00208557 26.23730469 0 C32.0037018 0.02399599 32.0037018 0.02399599 33.11865234 1.13894653 C33.24365234 4.13894653 33.24365234 4.13894653 33.11865234 7.13894653 C31.27588726 8.98171162 28.68901476 8.26769065 26.23730469 8.27789307 C25.41439941 8.27586884 24.59149414 8.2738446 23.74365234 8.27175903 C22.90398926 8.27271576 22.06432617 8.27367249 21.19921875 8.2746582 C19.4204094 8.27534001 17.64159757 8.2734857 15.86279297 8.26931763 C13.13031458 8.26396936 10.39800058 8.26926259 7.66552734 8.27566528 C5.94156865 8.2750045 4.21761005 8.27372334 2.49365234 8.27175903 C1.67074707 8.27378326 0.8478418 8.2758075 0 8.27789307 C-5.76639711 8.25389708 -5.76639711 8.25389708 -6.88134766 7.13894653 C-7.00634766 4.13894653 -7.00634766 4.13894653 -6.88134766 1.13894653 C-5.03858257 -0.70381855 -2.45171007 0.01020242 0 0 Z " fill="#000000" transform="translate(354.88134765625,127.86105346679688)"/>
<path d="M0 0 C3 0.125 3 0.125 4 1.125 C4.0991657 2.74757544 4.13079777 4.37439831 4.1328125 6 C4.13474609 7.47726563 4.13474609 7.47726563 4.13671875 8.984375 C4.13285156 10.02078125 4.12898438 11.0571875 4.125 12.125 C4.12886719 13.16140625 4.13273437 14.1978125 4.13671875 15.265625 C4.13542969 16.25046875 4.13414062 17.2353125 4.1328125 18.25 C4.13168457 19.16007812 4.13055664 20.07015625 4.12939453 21.0078125 C4 23.125 4 23.125 3 24.125 C0 24.25 0 24.25 -3 24.125 C-4.65394117 22.47105883 -4.12999683 20.52184587 -4.1328125 18.25 C-4.13410156 17.26515625 -4.13539063 16.2803125 -4.13671875 15.265625 C-4.13285156 14.22921875 -4.12898438 13.1928125 -4.125 12.125 C-4.13080078 10.57039063 -4.13080078 10.57039063 -4.13671875 8.984375 C-4.13542969 7.99953125 -4.13414062 7.0146875 -4.1328125 6 C-4.13168457 5.08992188 -4.13055664 4.17984375 -4.12939453 3.2421875 C-3.92382302 -0.12142795 -3.43749228 0.14322884 0 0 Z " fill="#000000" transform="translate(376,55.875)"/>
<path d="M0 0 C3 0.125 3 0.125 4 1.125 C4.0991657 2.74757544 4.13079777 4.37439831 4.1328125 6 C4.13474609 7.47726563 4.13474609 7.47726563 4.13671875 8.984375 C4.13285156 10.02078125 4.12898438 11.0571875 4.125 12.125 C4.12886719 13.16140625 4.13273437 14.1978125 4.13671875 15.265625 C4.13542969 16.25046875 4.13414062 17.2353125 4.1328125 18.25 C4.13168457 19.16007812 4.13055664 20.07015625 4.12939453 21.0078125 C4 23.125 4 23.125 3 24.125 C0 24.25 0 24.25 -3 24.125 C-4.65394117 22.47105883 -4.12999683 20.52184587 -4.1328125 18.25 C-4.13410156 17.26515625 -4.13539063 16.2803125 -4.13671875 15.265625 C-4.13285156 14.22921875 -4.12898438 13.1928125 -4.125 12.125 C-4.13080078 10.57039063 -4.13080078 10.57039063 -4.13671875 8.984375 C-4.13542969 7.99953125 -4.13414062 7.0146875 -4.1328125 6 C-4.13168457 5.08992188 -4.13055664 4.17984375 -4.12939453 3.2421875 C-3.92382302 -0.12142795 -3.43749228 0.14322884 0 0 Z " fill="#000000" transform="translate(360,55.875)"/>
</svg>
