<?xml version="1.0" encoding="UTF-8"?>
<svg version="1.1" xmlns="http://www.w3.org/2000/svg" width="512" height="512">
<path d="M0 0 C15.1650549 12.37030016 24.55705786 27.50948874 28.30664062 46.72021484 C28.68891185 50.77586857 28.71572758 54.7926829 28.69190979 58.86425781 C28.69714549 60.02577299 28.70238118 61.18728817 28.70777553 62.38400078 C28.72165114 66.24357626 28.71445728 70.10281312 28.70727539 73.96240234 C28.71135373 76.74270572 28.71996138 79.52299065 28.72842407 82.30328369 C28.74434316 88.27481658 28.74968047 94.24628174 28.74789619 100.21783447 C28.74550352 108.86456775 28.7615561 117.51119358 28.78234874 126.15789866 C28.81581963 140.20665766 28.83751679 154.25540699 28.8503418 168.30419922 C28.85111129 169.14360007 28.85188078 169.98300092 28.85267358 170.84783816 C28.85577573 174.2487434 28.85885855 177.64964864 28.86191363 181.05055392 C28.87044469 190.41244849 28.88134687 199.7743397 28.89331055 209.13623047 C28.89491257 210.3937843 28.89491257 210.3937843 28.89654697 211.67674327 C28.91466482 225.67578982 28.94066955 239.67481346 28.97144169 253.67383766 C28.98994651 262.29475701 29.00090839 270.91562484 29.00196361 279.53656435 C29.00307052 285.44591877 29.01105467 291.3552379 29.02434725 297.26457739 C29.0317341 300.66863737 29.03478018 304.07255521 29.03122902 307.47663116 C29.02781275 311.17655733 29.03664647 314.87626702 29.0483551 318.57617188 C29.04238346 320.16900655 29.04238346 320.16900655 29.03629118 321.7940197 C29.11177161 335.31335842 31.0975899 348.32655306 40.55664062 358.65771484 C49.29645989 366.58542701 60.14911145 369.22860535 71.66992188 369.03271484 C82.70313364 368.08464079 91.11600968 363.40361675 98.55664062 355.40771484 C107.66238414 344.07502319 107.60648481 329.73069311 107.56201172 315.83544922 C107.56476865 314.38205775 107.56845277 312.92866779 107.57298279 311.47528076 C107.58102951 308.37173926 107.58328005 305.2682695 107.58103561 302.16471863 C107.57818144 297.25627854 107.5926285 292.34797987 107.61001587 287.4395752 C107.6568555 273.49147603 107.68100565 259.54338932 107.6875 245.59521484 C107.69124757 237.87186639 107.70924046 230.14868079 107.74259436 222.42540216 C107.76280881 217.54579346 107.76518037 212.66660462 107.75431418 207.78697109 C107.75171081 204.75805705 107.76569016 201.729389 107.78439522 198.70053864 C107.78972465 197.29606776 107.78820752 195.89155181 107.77935982 194.48709869 C107.76826147 192.57112946 107.78399567 190.65506062 107.80111694 188.73913574 C107.80220648 187.66700584 107.80329601 186.59487595 107.80441856 185.49025726 C108.42910559 182.04475039 109.59629421 180.86557146 112.30664062 178.72021484 C114.30664062 178.18896484 114.30664062 178.18896484 116.30664062 178.22021484 C117.29664063 178.20474609 117.29664063 178.20474609 118.30664062 178.18896484 C121.25604179 178.97239953 122.40295109 180.35814145 124.30664062 182.72021484 C124.81000519 185.64084435 124.81000519 185.64084435 124.8145752 189.10531616 C124.83149414 191.0773703 124.83149414 191.0773703 124.84875488 193.08926392 C124.84097737 194.54486304 124.83278467 196.00045999 124.82421875 197.45605469 C124.82963982 198.99056665 124.83676239 200.52507341 124.84545898 202.05957031 C124.86371269 206.22969143 124.85661246 210.39941713 124.84394264 214.56954527 C124.83380726 218.94323502 124.84321151 223.31689117 124.8494873 227.69058228 C124.85676985 235.04638729 124.84716818 242.40203185 124.828125 249.7578125 C124.80643589 258.23286482 124.81334688 266.707531 124.83543062 275.18257368 C124.85366431 282.47456588 124.85610182 289.76644267 124.84567595 297.05845034 C124.83947413 301.4061308 124.83851157 305.75363079 124.8518219 310.10129929 C124.86349329 314.20053095 124.85515197 318.29927322 124.83224487 322.39845276 C124.82701386 323.89224567 124.82837366 325.38608069 124.83729553 326.87985611 C124.93478086 344.88098922 120.22908822 359.13842284 107.78320312 372.39599609 C95.65863727 383.77472903 80.68558006 387.19128601 64.48242188 386.93505859 C48.72441241 386.3535689 35.34722004 379.372483 24.61914062 368.03271484 C15.21743437 356.73321637 11.83667954 343.17863763 11.92137146 328.78581238 C11.91613576 327.63472986 11.91090007 326.48364734 11.90550572 325.29768354 C11.89161442 321.46730846 11.89882807 317.6372738 11.90600586 313.80688477 C11.90192878 311.04967802 11.89332101 308.29248989 11.88485718 305.53529358 C11.86892937 299.61012885 11.86360167 293.68503239 11.86538506 287.75984764 C11.86777713 279.1779531 11.85172815 270.59616688 11.83093251 262.01430074 C11.79745103 248.06821688 11.77576148 234.12214276 11.76293945 220.17602539 C11.76216996 219.34256489 11.76140047 218.50910438 11.76060767 217.6503875 C11.7575057 214.27381239 11.75442288 210.89723726 11.75136762 207.52066211 C11.74284142 198.23227819 11.7319381 188.94389766 11.7199707 179.65551758 C11.71836868 178.40822685 11.71836868 178.40822685 11.71673428 177.13573834 C11.69860615 163.24293487 11.67259413 149.35015443 11.64183956 135.45737344 C11.62334802 126.90331933 11.61237369 118.34931704 11.61131764 109.79524264 C11.61020935 103.92838088 11.60221144 98.06155459 11.588934 92.19470783 C11.58155863 88.81673528 11.57849467 85.43890542 11.58205223 82.0609169 C11.71479079 47.57054301 11.71479079 47.57054301 -5.69335938 18.72021484 C-12.70763699 12.48800156 -20.66337245 8.25283221 -29.69335938 5.72021484 C-30.31202881 5.54659424 -30.93069824 5.37297363 -31.56811523 5.1940918 C-46.68034012 1.8244389 -61.21718284 5.76063289 -74.34179688 13.19287109 C-77.2518839 15.08297745 -79.36511597 17.16665756 -81.69335938 19.72021484 C-82.35335937 19.72021484 -83.01335937 19.72021484 -83.69335938 19.72021484 C-83.95503906 20.28998047 -84.21671875 20.85974609 -84.48632812 21.44677734 C-85.78278277 23.88864337 -87.32042452 25.90527066 -89.00585938 28.09521484 C-97.30838851 39.97820967 -98.68978248 52.67013834 -99.69335938 66.72021484 C-98.81599121 66.68879395 -98.81599121 66.68879395 -97.92089844 66.65673828 C-95.26189472 66.57341369 -92.60316582 66.52150588 -89.94335938 66.47021484 C-89.02296875 66.43669922 -88.10257812 66.40318359 -87.15429688 66.36865234 C-85.82011719 66.34931641 -85.82011719 66.34931641 -84.45898438 66.32958984 C-83.64204102 66.30864258 -82.82509766 66.28769531 -81.98339844 66.26611328 C-79.69335937 66.72021484 -79.69335937 66.72021484 -77.41992188 68.11865234 C-74.74108044 72.15509668 -75.19890863 75.9994613 -75.30273438 80.73583984 C-75.30839417 81.70680603 -75.31405396 82.67777222 -75.31988525 83.67816162 C-75.34225626 86.77601654 -75.39245465 89.87271018 -75.44335938 92.97021484 C-75.46342341 95.07176063 -75.48167435 97.17332456 -75.49804688 99.27490234 C-75.54212357 104.42378654 -75.61115679 109.57180388 -75.69335938 114.72021484 C-73.91674927 114.68879395 -73.91674927 114.68879395 -72.10424805 114.65673828 C-67.66313006 114.58372814 -63.22206389 114.53819561 -58.78051758 114.50048828 C-56.86701503 114.48051065 -54.95357245 114.45331886 -53.0402832 114.41845703 C-38.0051271 114.15158399 -26.11294794 114.81871726 -14.69335938 125.72021484 C-5.01267026 135.86097632 -3.09124483 146.5365756 -3.17578125 160.19677734 C-3.1703483 161.61896477 -3.16321912 163.04114655 -3.15454102 164.46331787 C-3.13644367 168.29400421 -3.14331823 172.12425535 -3.15605736 175.95494843 C-3.16625615 179.98299749 -3.15677273 184.01101181 -3.1505127 188.0390625 C-3.14325616 194.80068583 -3.15277135 201.56213382 -3.171875 208.32373047 C-3.19363999 216.11678687 -3.1865872 223.90942452 -3.16456938 231.70247078 C-3.14635825 238.41961792 -3.14388483 245.13663975 -3.15432405 251.85380363 C-3.16052774 255.85420459 -3.16148155 259.85440938 -3.1481781 263.85479736 C-3.13653649 267.61761107 -3.14479476 271.37989022 -3.16775513 275.14264679 C-3.17547914 277.16456895 -3.16375767 279.18653686 -3.15124512 281.20843506 C-3.26287621 293.35888194 -6.21285022 302.83667159 -14.69335938 311.72021484 C-23.25526167 319.89367545 -31.87946849 323.01908346 -43.56835938 322.81787109 C-44.35210937 322.81082153 -45.13585937 322.80377197 -45.94335938 322.79650879 C-47.86010776 322.77824709 -49.77675899 322.75022842 -51.69335938 322.72021484 C-51.68447693 323.46301697 -51.67559448 324.20581909 -51.66644287 324.97113037 C-51.58626194 331.9747139 -51.52537751 338.97813819 -51.48611069 345.98205185 C-51.46524425 349.5827977 -51.43694517 353.183164 -51.39160156 356.78369141 C-51.34810813 360.25909398 -51.32421516 363.73413172 -51.3138504 367.20978546 C-51.30287323 369.17967268 -51.27165238 371.14941332 -51.24017334 373.11907959 C-51.23987122 374.32002258 -51.23956909 375.52096558 -51.23925781 376.75830078 C-51.23037537 377.81531189 -51.22149292 378.872323 -51.21234131 379.96136475 C-51.81703199 383.42953166 -52.92726684 384.60502278 -55.69335938 386.72021484 C-58.70898437 387.11083984 -58.70898437 387.11083984 -61.94335938 386.97021484 C-63.02101562 386.93412109 -64.09867188 386.89802734 -65.20898438 386.86083984 C-66.02882812 386.81443359 -66.84867188 386.76802734 -67.69335938 386.72021484 C-67.67241211 388.0321582 -67.65146484 389.34410156 -67.62988281 390.69580078 C-67.55747967 395.56352828 -67.51155824 400.43120819 -67.47363281 405.29931641 C-67.45351812 407.40616866 -67.4262227 409.5129651 -67.39160156 411.61962891 C-67.34307769 414.64808931 -67.32038921 417.67581163 -67.30273438 420.70458984 C-67.28208923 421.64639099 -67.26144409 422.58819214 -67.24017334 423.55853271 C-67.23792957 430.09853559 -67.23792957 430.09853559 -69.59277344 433.31298828 C-71.85685837 434.82974625 -72.992875 435.26240991 -75.69335938 435.22021484 C-76.68335938 435.23568359 -76.68335938 435.23568359 -77.69335938 435.25146484 C-80.79509055 434.4275675 -81.78235026 433.32881598 -83.69335938 430.72021484 C-84.25925743 427.38131754 -84.15834638 424.0824986 -84.08398438 420.70458984 C-84.07995605 419.84365723 -84.07592773 418.98272461 -84.07177734 418.09570312 C-84.05088655 414.8869895 -83.99504081 411.67858025 -83.94335938 408.47021484 C-83.86085938 401.29271484 -83.77835937 394.11521484 -83.69335938 386.72021484 C-99.53335938 386.72021484 -115.37335938 386.72021484 -131.69335938 386.72021484 C-131.53517326 401.0208113 -131.53517326 401.0208113 -131.33300781 415.32080078 C-131.32132389 417.11538747 -131.31113137 418.90998476 -131.30273438 420.70458984 C-131.28227051 421.63416504 -131.26180664 422.56374023 -131.24072266 423.52148438 C-131.23716229 430.09748823 -131.23716229 430.09748823 -133.59277344 433.31298828 C-135.85685837 434.82974625 -136.992875 435.26240991 -139.69335938 435.22021484 C-140.68335938 435.23568359 -140.68335938 435.23568359 -141.69335938 435.25146484 C-144.79509055 434.4275675 -145.78235026 433.32881598 -147.69335938 430.72021484 C-148.2593228 427.38093184 -148.15803952 424.08287728 -148.08398438 420.70458984 C-148.07832458 419.73362366 -148.07266479 418.76265747 -148.0668335 417.76226807 C-148.04446249 414.66441315 -147.9942641 411.56771951 -147.94335938 408.47021484 C-147.92329534 406.36866906 -147.9050444 404.26710513 -147.88867188 402.16552734 C-147.84459518 397.01664315 -147.77556196 391.86862581 -147.69335938 386.72021484 C-148.51320312 386.76662109 -149.33304688 386.81302734 -150.17773438 386.86083984 C-151.25539062 386.89693359 -152.33304688 386.93302734 -153.44335938 386.97021484 C-154.51070312 387.01662109 -155.57804687 387.06302734 -156.67773438 387.11083984 C-160.46706295 386.61999417 -161.36305395 385.69430144 -163.69335938 382.72021484 C-164.17437744 379.96136475 -164.17437744 379.96136475 -164.14746094 376.75830078 C-164.14715881 375.55735779 -164.14685669 374.35641479 -164.14654541 373.11907959 C-164.12590027 371.82729797 -164.10525513 370.53551636 -164.08398438 369.20458984 C-164.07652008 367.86510056 -164.07082804 366.52560032 -164.0668335 365.18609619 C-164.0515915 361.66770048 -164.01232355 358.14996969 -163.96801758 354.63183594 C-163.92703302 351.03899123 -163.90881578 347.44603864 -163.88867188 343.85302734 C-163.84582683 336.80848518 -163.77759384 329.76439352 -163.69335938 322.72021484 C-165.42972656 322.74740601 -165.42972656 322.74740601 -167.20117188 322.77514648 C-168.74023041 322.78980977 -170.27929324 322.80402773 -171.81835938 322.81787109 C-172.95917969 322.83750916 -172.95917969 322.83750916 -174.12304688 322.85754395 C-184.83879533 322.92971359 -192.96993576 319.09323739 -200.69335938 311.72021484 C-212.60422812 299.24328501 -212.29590532 285.62912634 -212.22460938 269.34912109 C-212.22730726 267.17723924 -212.23119215 265.00535857 -212.23620605 262.83348083 C-212.24207831 258.30219925 -212.23360565 253.77123476 -212.21484375 249.23999023 C-212.19196005 243.43028837 -212.20525134 237.62132191 -212.22913361 231.81164646 C-212.24357162 227.33611989 -212.23899637 222.86076852 -212.22862244 218.38523674 C-212.22595458 216.24219615 -212.22922697 214.09913964 -212.23854065 211.95611763 C-212.24868362 208.96893038 -212.23324063 205.98294698 -212.2109375 202.99584961 C-212.21903442 202.11113983 -212.22713135 201.22643005 -212.23547363 200.31491089 C-212.1526291 194.33482995 -212.1526291 194.33482995 -209.80944824 191.19908142 C-207.26166029 189.41851421 -205.81395304 188.79451469 -202.69335938 188.72021484 C-197.05480516 190.99732328 -197.05480516 190.99732328 -195.69335938 193.72021484 C-195.5811261 196.47931731 -195.52867028 199.21442901 -195.51977539 201.97436523 C-195.51308838 202.82826843 -195.50640137 203.68217163 -195.49951172 204.56195068 C-195.48544038 206.42096073 -195.473553 208.27998827 -195.46356392 210.13902473 C-195.44716277 213.08635352 -195.42392153 216.0335543 -195.39866638 218.9808197 C-195.32789235 227.36255504 -195.26796338 235.74434477 -195.21655273 244.1262207 C-195.184639 249.25090002 -195.14332388 254.37543572 -195.09635735 259.49999809 C-195.08040122 261.44908482 -195.06805037 263.39820466 -195.05945015 265.34733772 C-195.04720321 268.08513959 -195.02301201 270.82260857 -194.99633789 273.56030273 C-194.99574875 274.35701889 -194.99515961 275.15373505 -194.99455261 275.97459412 C-194.88232619 284.73186041 -193.74886893 292.70648636 -187.27539062 299.12646484 C-180.94757056 304.72227488 -174.27378559 305.84217699 -166.02685547 305.84619141 C-164.93907806 305.84999817 -163.85130066 305.85380493 -162.7305603 305.85772705 C-161.57101837 305.85875427 -160.41147644 305.85978149 -159.21679688 305.86083984 C-156.74803754 305.87915374 -154.27928726 305.89872272 -151.81054688 305.91943359 C-147.92822808 305.94849434 -144.0464975 305.97021758 -140.1640625 305.97070312 C-136.41027946 305.9740259 -132.65784642 306.00848917 -128.90429688 306.04833984 C-127.74070648 306.04127014 -126.57711609 306.03420044 -125.37826538 306.0269165 C-117.34469452 306.14885604 -117.34469452 306.14885604 -113.94750977 309.12890625 C-111.94260383 313.27141581 -112.61818443 315.27615842 -113.69335938 319.72021484 C-114.80981445 321.4440918 -114.80981445 321.4440918 -116.69335938 322.72021484 C-119.87963867 323.06079102 -119.87963867 323.06079102 -123.76757812 323.01318359 C-125.01885498 323.00569092 -126.27013184 322.99819824 -127.55932617 322.99047852 C-129.15043213 322.9631665 -130.74153809 322.93585449 -132.38085938 322.90771484 C-139.96054688 322.81490234 -139.96054688 322.81490234 -147.69335938 322.72021484 C-147.69335938 338.56021484 -147.69335938 354.40021484 -147.69335938 370.72021484 C-121.29335937 370.72021484 -94.89335937 370.72021484 -67.69335938 370.72021484 C-67.69335938 354.88021484 -67.69335938 339.04021484 -67.69335938 322.72021484 C-70.66335937 322.72021484 -73.63335937 322.72021484 -76.69335938 322.72021484 C-79.25585938 321.22021484 -79.25585938 321.22021484 -80.69335938 318.72021484 C-81.23489171 315.93844877 -81.42362714 313.46945819 -80.69335938 310.72021484 C-78.38101648 307.65450841 -77.19992252 306.79818181 -73.3527832 306.20605469 C-72.04849365 306.19783691 -70.7442041 306.18961914 -69.40039062 306.18115234 C-68.34219368 306.16346298 -68.34219368 306.16346298 -67.26261902 306.14541626 C-65.01014211 306.11020455 -62.75858853 306.10100158 -60.50585938 306.09521484 C-42.50341997 306.64723345 -42.50341997 306.64723345 -27.28710938 298.30224609 C-21.73440377 292.02316912 -20.57445614 285.38914095 -20.55964661 277.19987488 C-20.55538162 276.12762161 -20.55111664 275.05536835 -20.54672241 273.95062256 C-20.5471756 272.78943909 -20.54762878 271.62825562 -20.5480957 270.43188477 C-20.54473709 269.19700821 -20.54137848 267.96213165 -20.53791809 266.68983459 C-20.5300613 263.31364135 -20.52674141 259.93750961 -20.5261023 256.56131148 C-20.5253898 254.44823874 -20.52325168 252.33517237 -20.52060509 250.22210121 C-20.51136265 242.83955096 -20.50726878 235.45701873 -20.50805664 228.07446289 C-20.50865698 221.210322 -20.49811097 214.3462598 -20.48231298 207.48213881 C-20.46920449 201.57449132 -20.46387414 195.66686945 -20.46451205 189.75920755 C-20.46476609 186.23726748 -20.46196733 182.71539739 -20.451334 179.19347191 C-20.4397851 175.26119331 -20.44442006 171.32902127 -20.45043945 167.39672852 C-20.44481995 166.24161774 -20.43920044 165.08650696 -20.43341064 163.89639282 C-20.46819977 154.93295168 -20.82199038 146.89633251 -26.69335938 139.72021484 C-33.25119927 133.21657198 -40.1690405 131.60285851 -49.21369934 131.58650208 C-50.28595261 131.58223709 -51.35820587 131.57797211 -52.46295166 131.57357788 C-53.62413513 131.57403107 -54.7853186 131.57448425 -55.98168945 131.57495117 C-57.21656601 131.57159256 -58.45144257 131.56823395 -59.72373962 131.56477356 C-63.09993287 131.55691677 -66.47606461 131.55359688 -69.85226274 131.55295777 C-71.96533548 131.55224527 -74.07840185 131.55010715 -76.19147301 131.54746056 C-83.57402325 131.53821812 -90.95655549 131.53412425 -98.33911133 131.53491211 C-105.20325222 131.53551245 -112.06731442 131.52496644 -118.93143541 131.50916845 C-124.83908289 131.49605996 -130.74670476 131.49072961 -136.65436667 131.49136752 C-140.17630674 131.49162156 -143.69817683 131.4888228 -147.22010231 131.47818947 C-151.15238091 131.46664057 -155.08455295 131.47127553 -159.0168457 131.47729492 C-160.17195648 131.47167542 -161.32706726 131.46605591 -162.5171814 131.46026611 C-171.48062253 131.49505524 -179.51724171 131.84884585 -186.69335938 137.72021484 C-192.62271721 143.698984 -194.08504686 150.06112085 -195.81445312 158.07568359 C-196.69335938 160.72021484 -196.69335938 160.72021484 -199.69335938 162.72021484 C-206.78104351 163.39523238 -206.78104351 163.39523238 -209.91601562 161.07568359 C-213.32272629 156.56085605 -212.28505013 151.10643068 -211.69335938 145.72021484 C-209.07144676 133.8828224 -201.75465614 125.17411628 -191.69335938 118.72021484 C-181.68733976 113.17638571 -170.55665937 114.26885949 -159.50585938 114.47021484 C-157.58074778 114.49031368 -155.65561589 114.50855845 -153.73046875 114.52490234 C-149.05092434 114.5686227 -144.37236964 114.63746247 -139.69335938 114.72021484 C-139.72478027 112.7522998 -139.72478027 112.7522998 -139.75683594 110.74462891 C-139.82923908 105.8769014 -139.87516051 101.00922149 -139.91308594 96.14111328 C-139.93320063 94.03426103 -139.96049605 91.92746459 -139.99511719 89.82080078 C-140.04364106 86.79234038 -140.06632954 83.76461806 -140.08398438 80.73583984 C-140.10462952 79.7940387 -140.12527466 78.85223755 -140.14654541 77.88189697 C-140.1487689 71.40102908 -140.1487689 71.40102908 -137.953125 68.11865234 C-135.40893768 66.5442028 -134.11324907 66.24940701 -131.14648438 66.32958984 C-130.30214844 66.34248047 -129.4578125 66.35537109 -128.58789062 66.36865234 C-127.71519531 66.40216797 -126.8425 66.43568359 -125.94335938 66.47021484 C-125.05519531 66.48826172 -124.16703125 66.50630859 -123.25195312 66.52490234 C-121.06465089 66.5719411 -118.87956121 66.63764476 -116.69335938 66.72021484 C-116.74556641 65.4653125 -116.74556641 65.4653125 -116.79882812 64.18505859 C-117.29261002 42.9524371 -110.7016212 23.78954678 -96.21435547 8.1262207 C-88.21774507 -0.11736348 -78.46346083 -6.29953027 -67.69335938 -10.27978516 C-66.45199219 -10.75738281 -66.45199219 -10.75738281 -65.18554688 -11.24462891 C-43.75673144 -18.02313175 -17.84581771 -13.48728034 0 0 Z M-123.69335938 82.72021484 C-123.69335938 93.28021484 -123.69335938 103.84021484 -123.69335938 114.72021484 C-113.13335937 114.72021484 -102.57335937 114.72021484 -91.69335938 114.72021484 C-91.69335938 104.16021484 -91.69335938 93.60021484 -91.69335938 82.72021484 C-102.25335938 82.72021484 -112.81335938 82.72021484 -123.69335938 82.72021484 Z " fill="#000000" transform="translate(299.693359375,45.27978515625)"/>
<path d="M0 0 C2.85695513 1.71417308 3.01592889 3.05628208 3.9375 6.3125 C4.03057515 11.80393386 1.23026168 14.65246245 -2.38183594 18.60888672 C-3.24067383 19.45725098 -4.09951172 20.30561523 -4.984375 21.1796875 C-5.91894531 22.1078125 -6.85351562 23.0359375 -7.81640625 23.9921875 C-8.79416093 24.95323683 -9.77202688 25.91417296 -10.75 26.875 C-11.74395327 27.8589068 -12.73744722 28.84327783 -13.73046875 29.828125 C-16.14917427 32.22334794 -18.57243438 34.61376276 -21 37 C-20.41508789 37.01458252 -19.83017578 37.02916504 -19.22753906 37.04418945 C-16.56770603 37.1188357 -13.90910552 37.21543899 -11.25 37.3125 C-10.32960937 37.33505859 -9.40921875 37.35761719 -8.4609375 37.38085938 C-7.57148438 37.41630859 -6.68203125 37.45175781 -5.765625 37.48828125 C-4.94868164 37.51446533 -4.13173828 37.54064941 -3.29003906 37.56762695 C-0.46655919 38.10071681 0.92928146 39.02546709 3 41 C4.04241539 44.7526954 4.53872038 46.93878928 2.7469635 50.46832275 C1.02848707 52.9587169 -0.74939078 54.99679342 -2.88891602 57.13183594 C-3.66304337 57.90903992 -4.43717072 58.6862439 -5.23475647 59.48699951 C-6.48173561 60.72320038 -6.48173561 60.72320038 -7.75390625 61.984375 C-8.61056381 62.84057434 -9.46722137 63.69677368 -10.34983826 64.57891846 C-12.15720953 66.38327403 -13.96700524 68.18520393 -15.77905273 69.98486328 C-18.560972 72.74848206 -21.33476211 75.52006337 -24.10742188 78.29296875 C-25.86411124 80.04474437 -27.62125702 81.79606246 -29.37890625 83.546875 C-30.21224991 84.37910583 -31.04559357 85.21133667 -31.90419006 86.06878662 C-32.67516525 86.83338196 -33.44614044 87.59797729 -34.24047852 88.38574219 C-34.91981949 89.06127136 -35.59916046 89.73680054 -36.29908752 90.43280029 C-38.56987593 92.52507663 -39.71103221 92.96789247 -42.8125 93.3125 C-46.82232894 92.91937952 -48.28446644 91.94829358 -51 89 C-52 86.0625 -52 86.0625 -52 83 C-49.9191792 78.81703227 -46.98034333 75.71507459 -43.67578125 72.48046875 C-43.16951706 71.97703445 -42.66325287 71.47360016 -42.14164734 70.95491028 C-40.53659782 69.36098252 -38.92470856 67.77418293 -37.3125 66.1875 C-36.21763821 65.10267836 -35.12323226 64.01739645 -34.02929688 62.93164062 C-31.35810872 60.28240652 -28.68076716 57.63953923 -26 55 C-26.92280762 54.98598145 -26.92280762 54.98598145 -27.86425781 54.97167969 C-30.66031086 54.91788915 -33.4547062 54.83426181 -36.25 54.75 C-37.21808594 54.73582031 -38.18617188 54.72164063 -39.18359375 54.70703125 C-46.3677514 54.45930168 -46.3677514 54.45930168 -49.61328125 52.1015625 C-51.29289491 49.55611983 -51.92701473 48.06538125 -52 45 C-49.68487763 38.68035771 -44.96352844 34.54817822 -40.28125 29.91796875 C-39.42696411 29.06318436 -38.57267822 28.20839996 -37.69250488 27.32771301 C-35.89055781 25.52810097 -34.08493003 23.73216784 -32.27587891 21.93969727 C-29.50115194 19.18864211 -26.74006381 16.42442829 -23.98046875 13.65820312 C-22.22735463 11.91066331 -20.47347453 10.16389152 -18.71875 8.41796875 C-17.89056763 7.58887497 -17.06238525 6.75978119 -16.20910645 5.90556335 C-15.43820679 5.14419571 -14.66730713 4.38282806 -13.87304688 3.59838867 C-13.19592651 2.9258757 -12.51880615 2.25336273 -11.82116699 1.56047058 C-7.99173152 -1.72078886 -4.67330969 -1.0014235 0 0 Z " fill="#000000" transform="translate(216,218)"/>
</svg>
