<?xml version="1.0" encoding="UTF-8"?>
<svg version="1.1" xmlns="http://www.w3.org/2000/svg" width="512" height="512">
<path d="M0 0 C1.70718201 -0.01279495 1.70718201 -0.01279495 3.44885254 -0.02584839 C5.30048004 -0.02448883 5.30048004 -0.02448883 7.18951416 -0.02310181 C8.50081299 -0.02981903 9.81211182 -0.03653625 11.16314697 -0.04345703 C14.75014437 -0.06107727 18.33704626 -0.06581079 21.92408276 -0.0670886 C24.16916831 -0.06851331 26.41422982 -0.07278899 28.65930939 -0.07808304 C36.50337761 -0.09657193 44.347378 -0.1047553 52.19146729 -0.10317993 C59.48397931 -0.10197965 66.77619484 -0.12306252 74.06863189 -0.15466726 C80.34487977 -0.18089098 86.62103119 -0.19154465 92.89733338 -0.19026911 C96.63903632 -0.18976116 100.38047573 -0.19535113 104.12212372 -0.21662521 C108.30104045 -0.23973777 112.47930076 -0.23044961 116.65826416 -0.21841431 C118.49774628 -0.23527283 118.49774628 -0.23527283 120.37438965 -0.25247192 C130.35682574 -0.17961445 139.79120432 2.17161059 147.18267822 9.26742554 C156.67213222 20.15760975 157.65073891 31.59135883 157.58111572 45.60336304 C157.58314181 47.05540106 157.58605768 48.50743808 157.58981323 49.95947266 C157.59420305 52.98002964 157.58790908 56.00031805 157.5737915 59.02084351 C157.55660856 62.8843462 157.56661868 66.74722768 157.5845089 70.61070824 C157.59535923 73.59963655 157.59189632 76.58841783 157.58412552 79.57735062 C157.58213173 81.00225525 157.58455382 82.42717344 157.59156418 83.85206223 C157.59920869 85.83996056 157.58548518 87.82790614 157.57086182 89.81576538 C157.56847504 90.94396698 157.56608826 92.07216858 157.56362915 93.23455811 C157.14078898 96.60091865 156.11927821 98.51584923 154.18267822 101.26742554 C155.04248291 101.29320679 155.9022876 101.31898804 156.78814697 101.34555054 C171.78662487 102.06521578 184.07481254 105.55915083 194.54595947 116.71664429 C198.98307989 121.90401975 201.93879388 127.76034442 204.99517822 133.82992554 C205.29670807 134.42311584 205.59823792 135.01630615 205.90890503 135.62747192 C226.48113904 176.11527147 254.75057642 240.58228926 240.74517822 286.51742554 C235.94406622 296.93935159 227.74229073 303.27070069 217.18267822 307.26742554 C207.00700856 309.76161224 197.46868098 308.08293313 188.49517822 302.70492554 C180.84146219 297.23217992 176.36118813 289.29986279 174.18267822 280.26742554 C174.01078476 279.58115082 173.8388913 278.8948761 173.66178894 278.18780518 C173.01699112 274.25749352 173.02169345 270.41257196 173.00909424 266.43588257 C173.00240723 265.55526154 172.99572021 264.6746405 172.98883057 263.76733398 C172.97480002 261.8560231 172.96289965 259.94469566 172.95288277 258.03335953 C172.93636828 254.98533556 172.91311603 251.93742974 172.88798523 248.88946533 C172.81757324 240.22270724 172.75777303 231.55589571 172.70587158 222.88900757 C172.67359965 217.57926594 172.63219514 212.26965309 172.58567619 206.96001816 C172.56991535 204.95830544 172.55747857 202.9565631 172.548769 200.95480728 C173.83475341 158.65619902 173.83475341 158.65619902 158.18267822 121.26742554 C156.86267822 121.26742554 155.54267822 121.26742554 154.18267822 121.26742554 C154.66983419 121.97676632 155.15699016 122.68610711 155.65890843 123.41694307 C157.34359284 126.56844495 157.55923589 128.33492889 157.56299496 131.87514496 C157.5714349 132.99873649 157.57987484 134.12232802 157.58857054 135.27996778 C157.58256049 136.50942137 157.57655044 137.73887496 157.57035828 139.00558472 C157.57843658 140.97059016 157.57843658 140.97059016 157.58667809 142.97529268 C157.60115171 146.61027599 157.59688198 150.24503293 157.58951128 153.88002872 C157.5847863 157.80117493 157.59728389 161.72227168 157.60752869 165.6434021 C157.62473849 173.32669008 157.62555173 181.00989636 157.62031578 188.69319862 C157.61627488 194.94154657 157.61771671 201.18987037 157.62306404 207.43821716 C157.62381246 208.32745263 157.62456089 209.21668811 157.62533199 210.13287011 C157.62686348 211.93942194 157.62840183 213.74597376 157.62994695 215.55252558 C157.6436813 232.50268846 157.63822902 249.45280521 157.62676174 266.40296704 C157.61684083 281.89417676 157.62974859 297.38526684 157.65369593 312.87645811 C157.6781112 328.79065625 157.68768807 344.70479873 157.68104321 360.61901522 C157.67755477 369.55027015 157.67975753 378.48143321 157.69729424 387.41267395 C157.7120471 395.02055124 157.71261212 402.62827207 157.69522332 410.23614639 C157.6867339 414.1142499 157.68451264 417.9920743 157.69987488 421.87016296 C157.71379538 425.42857206 157.70886567 428.9864649 157.68963564 432.54484469 C157.6841423 434.42488323 157.69808617 436.30494855 157.71298975 438.18493605 C157.62361773 448.60668985 155.82455276 459.34189398 148.94439697 467.55648804 C139.50923993 476.71967825 129.65541859 478.71808655 116.93292236 478.67147827 C115.61972519 478.67834152 114.30652802 478.68520477 112.95353699 478.692276 C109.37080447 478.71013724 105.78831782 478.70905244 102.20555425 478.70333362 C99.20619223 478.70023157 96.20687675 478.70634545 93.20752138 478.71237236 C86.12766733 478.72639282 79.04793401 478.72487699 71.96807861 478.71347046 C64.68230633 478.70199103 57.39690224 478.71606738 50.11117846 478.74286693 C43.8382907 478.76507061 37.56551813 478.77165086 31.2925939 478.76579052 C27.55376355 478.76243093 23.81516916 478.7647691 20.07637215 478.78204155 C15.90462284 478.80047515 11.73358347 478.78627581 7.56182861 478.76913452 C6.33505402 478.77880249 5.10827942 478.78847046 3.84432983 478.7984314 C-6.74595959 478.70748465 -15.07526524 475.61747921 -22.81732178 468.26742554 C-30.84183591 458.64527058 -32.26458032 449.12259078 -32.20500183 436.88052368 C-32.20918041 435.53575502 -32.2146608 434.19098988 -32.22132164 432.84623122 C-32.23572528 429.17063594 -32.23154765 425.49526586 -32.22415483 421.81965852 C-32.21941307 417.84829263 -32.23194159 413.87697475 -32.24217224 409.90562439 C-32.2593432 402.13466302 -32.26020416 394.36378256 -32.25495934 386.59280714 C-32.25091487 380.27822 -32.25236446 373.96365674 -32.2577076 367.64907074 C-32.25845602 366.74974136 -32.25920444 365.85041198 -32.25997554 364.9238302 C-32.26150703 363.09680765 -32.26304538 361.26978512 -32.26459051 359.44276258 C-32.27830823 342.32257377 -32.27288194 325.2024307 -32.2614053 308.08224294 C-32.25146353 292.4145207 -32.26443116 276.74691639 -32.28833949 261.07921234 C-32.31270818 244.9886444 -32.32234449 228.89813145 -32.31568676 212.80754542 C-32.31219088 203.77488316 -32.31445145 194.74231171 -32.33193779 185.70966339 C-32.34663147 178.02443344 -32.34733195 170.33935833 -32.32986688 162.6541315 C-32.32133292 158.73243647 -32.3192656 154.8110184 -32.33451843 150.88933754 C-32.34830367 147.30066613 -32.34368291 143.7125106 -32.3242792 140.12386951 C-32.31870725 138.2082838 -32.33284159 136.29267222 -32.3476333 134.37713552 C-32.33291187 132.67237274 -32.33291187 132.67237274 -32.31789303 130.93317032 C-32.31778569 129.95267472 -32.31767835 128.97217911 -32.31756777 127.96197152 C-31.67336851 124.49202963 -30.25785371 122.76877703 -27.81732178 120.26742554 C-27.15732178 120.26742554 -26.49732178 120.26742554 -25.81732178 120.26742554 C-25.81732178 114.32742554 -25.81732178 108.38742554 -25.81732178 102.26742554 C-27.13732178 101.60742554 -28.45732178 100.94742554 -29.81732178 100.26742554 C-32.21247242 96.67469957 -32.08038774 95.0393569 -32.10784912 90.76742554 C-32.11456635 90.11166031 -32.12128357 89.45589508 -32.12820435 88.78025818 C-32.14721823 86.60923695 -32.1511116 84.43852491 -32.15325928 82.26742554 C-32.15968996 80.75106684 -32.16641852 79.23470939 -32.1734314 77.71835327 C-32.18541622 74.53399792 -32.1891115 71.34975107 -32.18792725 68.16537476 C-32.18772515 64.11158508 -32.21490725 60.05850513 -32.24947166 56.00488281 C-32.2718753 52.86816305 -32.27576054 49.73160964 -32.27470779 46.59481812 C-32.27704818 45.10228046 -32.28578235 43.60973711 -32.30137253 42.11727905 C-32.41040972 30.58999053 -31.13330087 20.34563833 -23.65325928 11.11898804 C-17.0157042 4.42494313 -9.55948142 0.03254842 0 0 Z M-11.19232178 25.32992554 C-20.87273532 42.82913464 -13.81732178 65.26910747 -13.81732178 85.26742554 C36.67267822 85.26742554 87.16267822 85.26742554 139.18267822 85.26742554 C143.13781775 55.64350467 143.13781775 55.64350467 133.74517822 22.39242554 C129.7364434 19.06810885 127.06920084 18.01863414 121.85142517 18 C120.77061676 17.99147003 119.68980835 17.98294006 118.57624817 17.97415161 C116.80494789 17.97551117 116.80494789 17.97551117 114.99786377 17.97689819 C113.75031311 17.97018097 112.50276245 17.96346375 111.21740723 17.95654297 C107.79778721 17.94079651 104.37841006 17.93418769 100.95877051 17.9329114 C98.82058979 17.93148883 96.68243444 17.9272172 94.54426003 17.92191696 C87.07972221 17.90341636 79.61525578 17.89524621 72.1506958 17.89682007 C65.20125428 17.89802086 58.25212365 17.8769312 51.30276078 17.84533274 C45.32978157 17.81914529 39.35690372 17.80845383 33.38386756 17.80973089 C29.81940106 17.81023989 26.25521076 17.80459183 22.69080162 17.78337479 C18.71230404 17.76033945 14.73422961 17.7695285 10.75567627 17.78158569 C9.58088211 17.77034668 8.40608795 17.75910767 7.19569397 17.74752808 C-0.88991516 17.80979925 -6.0053323 18.64143911 -11.19232178 25.32992554 Z M-5.81732178 103.26742554 C-7.97674997 106.50656783 -8.08965156 107.51602287 -8.06732178 111.26742554 C-8.07247803 112.13367554 -8.07763428 112.99992554 -8.08294678 113.89242554 C-7.97146729 116.53322054 -7.97146729 116.53322054 -5.81732178 119.26742554 C-3.33066311 119.71555365 -3.33066311 119.71555365 -0.37576294 119.62818909 C1.35746971 119.63437508 1.35746971 119.63437508 3.12571716 119.64068604 C5.0365081 119.62450729 5.0365081 119.62450729 6.98590088 119.60800171 C8.33593222 119.60715582 9.68596495 119.60762982 11.03599548 119.60932922 C14.70736773 119.61019212 18.37844763 119.59251908 22.04975176 119.57160735 C25.8841152 119.55288938 29.71848489 119.55109398 33.55288696 119.54753113 C40.81670009 119.53819626 48.08037822 119.51356309 55.34413183 119.48348266 C63.61244199 119.44998338 71.88075851 119.43346392 80.14911962 119.41839635 C97.16038399 119.38701471 114.17151684 119.33422634 131.18267822 119.26742554 C132.67097875 116.42975224 133.45787964 114.49320707 133.43267822 111.26742554 C133.43783447 110.60742554 133.44299072 109.94742554 133.44830322 109.26742554 C133.13934559 106.94115631 132.26598527 105.33291662 131.18267822 103.26742554 C113.35466181 103.19741705 95.52668095 103.14447749 77.6985569 103.11198902 C69.42108192 103.09650468 61.14369222 103.07538538 52.86627197 103.04110718 C45.65363744 103.01125261 38.44106467 102.99186194 31.22837007 102.98516005 C27.40749557 102.98124106 23.58679776 102.97199873 19.76597977 102.95023537 C16.17255088 102.92993228 12.57937214 102.92357907 8.98589134 102.92810249 C7.03246758 102.92687854 5.07907129 102.91070416 3.12571716 102.89416504 C1.97022873 102.89828903 0.8147403 102.90241302 -0.37576294 102.90666199 C-1.38420446 102.90389661 -2.39264599 102.90113123 -3.43164635 102.89828205 C-4.21891924 103.0200994 -5.00619213 103.14191675 -5.81732178 103.26742554 Z M-13.81732178 137.26742554 C-13.9338498 192.16975703 -13.9338498 192.16975703 -14.01263428 247.07211304 C-14.02046577 254.47282954 -14.0285477 261.87354571 -14.03704834 269.27426147 C-14.03810333 270.20182133 -14.03915833 271.12938118 -14.04024529 272.08504891 C-14.05764278 287.06002511 -14.08917819 302.03493988 -14.12593296 317.00987965 C-14.16333839 332.37808309 -14.18555679 347.74625438 -14.19367576 363.11450148 C-14.19916435 372.59763681 -14.21649994 382.08059857 -14.24898764 391.56368047 C-14.27013061 398.06648953 -14.27652231 404.56920886 -14.27132729 411.0720498 C-14.26876516 414.82395362 -14.27269412 418.57555412 -14.29414368 422.32740402 C-14.3172415 426.39733106 -14.30926902 430.46661286 -14.29833984 434.53659058 C-14.30999121 435.71948182 -14.32164258 436.90237306 -14.33364701 438.12110949 C-14.28381776 444.97703874 -13.51447193 449.4413407 -9.81732178 455.26742554 C-5.57149105 459.30614257 -2.37276506 460.38836502 3.39367676 460.41459656 C4.4731105 460.42175186 5.55254425 460.42890717 6.66468811 460.4362793 C7.84915024 460.4389682 9.03361237 460.4416571 10.25396729 460.44442749 C11.50137192 460.45099869 12.74877655 460.45756989 14.03398132 460.46434021 C18.17209105 460.48409048 22.31016201 460.4957413 26.44830322 460.50570679 C27.8742754 460.50975517 29.30024739 460.51387212 30.72621918 460.51805687 C37.42658229 460.53710495 44.12693441 460.55133634 50.82731938 460.55966884 C58.55475784 460.56943789 66.2819096 460.59575005 74.00924706 460.63616973 C79.98644 460.66635893 85.96355087 460.68114039 91.94081855 460.68444985 C95.50867168 460.68679732 99.0762184 460.69571749 102.64398956 460.72091103 C106.62735606 460.74858502 110.61034726 460.74435198 114.59381104 460.73739624 C116.35835884 460.75661133 116.35835884 460.75661133 118.15855408 460.7762146 C124.72805496 460.73439112 128.85289942 460.21854266 134.18267822 456.26742554 C138.26704825 451.49185442 139.3082033 446.05911374 139.30572605 439.96508408 C139.3077171 438.88423404 139.30970815 437.80338401 139.31175953 436.68978095 C139.30739027 434.90963989 139.30739027 434.90963989 139.30293274 433.09353638 C139.30378716 431.83238455 139.30464159 430.57123272 139.30552191 429.27186418 C139.30776059 425.76920539 139.30375412 422.26657711 139.29874384 418.76392221 C139.29443057 414.98754279 139.29588639 411.21116513 139.29664612 407.43478394 C139.29717079 400.89123883 139.29402985 394.34770368 139.28840828 387.80416107 C139.28028569 378.34326481 139.27767728 368.88237338 139.27642029 359.42147401 C139.27423097 344.07227022 139.26757412 328.72307175 139.25811768 313.37387085 C139.24894047 298.46241278 139.24187261 283.55095616 139.23760986 268.63949585 C139.23734187 267.71117691 139.23707387 266.78285797 139.23679775 265.82640815 C139.23471836 258.56648321 139.23276143 251.30655823 139.23084319 244.04663324 C139.22140731 208.45355913 139.20128952 172.86049832 139.18267822 137.26742554 C88.69267822 137.26742554 38.20267822 137.26742554 -13.81732178 137.26742554 Z M186.18267822 139.26742554 C186.3038501 140.16719116 186.42502197 141.06695679 186.54986572 141.99398804 C188.94231646 160.36064828 190.46961304 178.56666153 190.48763847 197.09720802 C190.49139053 200.19741755 190.50833988 203.29733137 190.52839661 206.3974762 C190.58304458 215.19204219 190.61463231 223.98664438 190.63897705 232.78134155 C190.65488465 238.20790993 190.68510395 243.63425357 190.72374153 249.06070518 C190.73532712 251.11027325 190.74132131 253.15988139 190.74142265 255.20948219 C190.74161563 258.06733372 190.7599399 260.92456371 190.78204346 263.78231812 C190.77746628 264.61306854 190.7728891 265.44381897 190.76817322 266.29974365 C190.85254721 273.19405884 192.29458021 279.27251145 195.99517822 285.14242554 C199.14232836 288.1996571 201.84764457 290.16262151 206.35845947 290.36508179 C212.93970781 289.911584 217.04185829 287.63968546 221.49517822 282.70492554 C230.429332 269.80003675 222.33534514 241.09945421 219.79376221 226.79013062 C215.05284156 202.28798932 206.31969326 177.57198191 195.18267822 155.26742554 C194.40514689 153.68418431 193.62780556 152.10084977 192.85064697 150.51742554 C190.99103603 146.7518333 189.09833826 143.00478953 187.18267822 139.26742554 C186.85267822 139.26742554 186.52267822 139.26742554 186.18267822 139.26742554 Z " fill="#000000" transform="translate(150.81732177734375,16.732574462890625)"/>
</svg>
